<?xml version="1.0" encoding="UTF-8"?>
<svg version="1.1" xmlns="http://www.w3.org/2000/svg" width="2400" height="750">
<path d="M0 0 C2.31403309 -0.00072624 4.62806073 -0.0028891 6.94209242 -0.00549722 C15.11880939 -0.01467643 23.29551039 -0.01884251 31.47223234 -0.01804566 C38.10376758 -0.01751582 44.73524345 -0.02451657 51.36676359 -0.03855348 C139.75897456 -0.22139648 229.1711303 1.71740525 441.54108 76.41725707 C489.42814452 124.69382083 499.40863081 198.87914794 506.66608 263.41725707 C506.81499693 264.72293136 506.81499693 264.72293136 506.96692228 266.0549829 C510.29337196 295.60343633 511.23127034 325.00794462 511.17143583 354.71262908 C511.16599952 357.52133864 511.16362897 360.33003977 511.1615634 363.13875365 C511.12786682 392.5715061 510.45516082 421.83384921 507.85358 451.16725707 C507.74112944 452.46663207 507.74112944 452.46663207 507.62640715 453.79225707 C506.57293898 465.9419921 505.31771295 478.06024039 503.85358 490.16725707 C503.76247953 490.92315124 503.67137907 491.6790454 503.57751799 492.45784545 C496.51312607 550.62087379 486.33898847 615.9758524 445.85358 661.16725707 C445.41127043 661.66306273 444.96896086 662.1588684 444.51324797 662.66969848 C441.34150656 666.21394147 438.13788866 669.72676601 434.85358 673.16725707 C434.05657682 674.00474486 434.05657682 674.00474486 433.24347258 674.8591516 C429.04607269 679.17141015 424.5933917 682.92252155 419.79108 686.54225707 C419.04358488 687.10678588 418.29608976 687.67131469 417.52594328 688.25295043 C355.44781414 734.67607766 273.8374279 744.72004972 198.47858 748.29225707 C197.66054899 748.3310498 196.84251799 748.36984252 195.99969816 748.40981078 C164.17567044 749.88033905 132.36113715 750.33017049 100.50770116 750.33451414 C97.4958593 750.33523953 94.48402163 750.33740095 91.47218084 750.34001136 C80.83718542 750.34919418 70.2022023 750.35335612 59.56720304 750.3525598 C50.93144182 750.35202969 42.29572613 750.35903619 33.65997648 750.37306762 C-133.30611128 750.63820791 -133.30611128 750.63820791 -194.14642 740.16725707 C-194.81806185 740.05210753 -195.48970369 739.936958 -196.18169832 739.81831908 C-250.24899822 730.48556326 -309.8829976 714.65537321 -346.14642 670.16725707 C-346.96755281 669.18370238 -347.78868563 668.2001477 -348.63470125 667.18678832 C-382.37428446 626.10459798 -394.88524026 573.13944713 -405.14642 522.16725707 C-405.34941713 521.17085204 -405.34941713 521.17085204 -405.55651522 520.15431762 C-409.43896773 501.0810521 -411.33002592 482.22254801 -412.0464139 462.80293822 C-412.11674764 460.94927821 -412.19226819 459.09581131 -412.27157259 457.24251342 C-413.39092603 430.82617469 -413.33391474 404.39817497 -413.33172274 377.96266723 C-413.33164158 372.78001446 -413.33858236 367.5974503 -413.35223055 362.41481566 C-413.44884631 325.1054414 -413.33510586 287.80681022 -409.33392 250.66725707 C-409.25027193 249.86302306 -409.16662386 249.05878905 -409.080441 248.23018432 C-403.48257987 194.59192913 -393.02807351 137.18606629 -358.14642 94.16725707 C-357.48585604 93.34644652 -357.48585604 93.34644652 -356.81194735 92.50905395 C-321.80324572 49.3052719 -269.40836563 28.93582158 -216.14642 18.16725707 C-214.9192325 17.91879027 -213.692045 17.67032348 -212.42767 17.41432738 C-162.29674635 7.44625814 -111.15994238 3.24522898 -60.14642 1.16725707 C-59.17286971 1.12672745 -58.19931942 1.08619782 -57.1962676 1.04444003 C-38.12608794 0.26598156 -19.08347306 0.00339289 0 0 Z M-175.7167325 213.68678832 C-222.97537986 261.93315661 -230.41557418 351.00119359 -230.33392 414.66725707 C-230.33331575 415.54365844 -230.33271151 416.4200598 -230.33208895 417.32301879 C-230.25614089 458.05340474 -227.00279936 509.34379032 -198.14642 541.16725707 C-197.65142 541.71768676 -197.15642 542.26811645 -196.64642 542.83522582 C-177.49559862 561.43745597 -144.79902003 562.80994392 -119.83392 564.85475707 C-119.10559969 564.91551421 -118.37727938 564.97627135 -117.62688875 565.03886962 C-91.9114896 567.14381115 -66.15819982 567.32211886 -40.37578058 567.30158257 C-36.06759638 567.29898627 -31.7594139 567.30141713 -27.45122957 567.30296874 C-20.19988285 567.3047745 -12.9485464 567.30243139 -5.69720125 567.29762816 C1.62702432 567.29283077 8.95122947 567.29277737 16.275455 567.29762816 C66.72145096 567.35732035 66.72145096 567.35732035 117.16217375 566.71803832 C118.64527037 566.68851514 118.64527037 566.68851514 120.15832853 566.65839553 C142.57478762 566.19448723 165.11649742 565.62514038 187.41998625 563.20241332 C188.14118147 563.12483291 188.86237669 563.04725249 189.60542631 562.96732116 C222.89779188 559.15360876 254.38756191 542.75144092 275.66217375 516.80788207 C328.4430156 449.67631697 328.76005772 331.25562067 318.97858 249.41725707 C316.28940646 232.65408771 308.12517377 221.26670071 297.85358 208.16725707 C297.13686125 207.24815551 296.4201425 206.32905395 295.681705 205.38210082 C279.9096982 186.38400172 252.71242321 183.05079471 229.59967375 180.82350707 C145.16608036 173.38461448 58.87340688 176.43880163 -175.7167325 213.68678832 Z " fill="#E81616" transform="translate(1190.1464200019836,-0.16725707054138184)"/>
<path d="M0 0 C23.17971716 -0.60030171 46.99139848 0.77805594 69.59912109 6.07080078 C70.27120605 6.22806641 70.94329102 6.38533203 71.63574219 6.54736328 C80.15155851 8.63377143 89.21873384 11.66604634 94.03662109 19.50830078 C99.10912495 31.07360958 97.67805495 42.04346666 96.21655273 54.30712891 C96.06793289 55.59727716 95.91931305 56.88742542 95.76618958 58.21666908 C95.35727257 61.76511726 94.94060971 65.31261793 94.52261662 68.86000681 C94.0732073 72.68623229 93.63121681 76.51331552 93.18833923 80.34030151 C92.32246022 87.81278706 91.45008234 95.28449972 90.57551235 102.7559725 C89.44858884 112.38586016 88.32954378 122.01666091 87.21044922 131.64746094 C86.79403834 135.23026239 86.37755582 138.81305552 85.96102905 142.39584351 C85.85724202 143.28860162 85.75345498 144.18135974 85.64652288 145.10117114 C84.90301964 151.49544098 84.15814201 157.88954991 83.41275024 164.28359985 C80.66820603 187.83064037 77.94871933 211.38043853 75.25013351 234.93278837 C57.32270499 391.37582921 57.32270499 391.37582921 48.22412109 452.25830078 C48.06603973 453.31990417 47.90795837 454.38150757 47.74508667 455.47528076 C46.23412192 465.54364117 44.59896759 475.57655599 42.57177734 485.55517578 C42.4216922 486.31489182 42.27160706 487.07460785 42.11697388 487.85734558 C39.6210035 499.65441907 33.10621807 508.68632863 24.59912109 517.07080078 C24.05900391 517.62123047 23.51888672 518.17166016 22.96240234 518.73876953 C-3.8471594 543.9276021 -50.684113 544.2217432 -85.13916016 544.23876953 C-86.71453376 544.24199969 -88.2899071 544.24536492 -89.86528015 544.24885559 C-93.1503468 544.25479367 -96.43538736 544.25670127 -99.72045898 544.25610352 C-103.02943437 544.25602268 -106.33827006 544.26290578 -109.6472168 544.27661133 C-180.96464139 544.56744132 -180.96464139 544.56744132 -194.06494141 532.54345703 C-201.2775151 524.9933491 -203.04750165 515.30308557 -204.08837891 505.25830078 C-204.20503906 504.28699219 -204.32169922 503.31568359 -204.44189453 502.31494141 C-206.52217903 483.80393527 -206.55459772 465.12596152 -206.78875732 446.52316284 C-203.94736451 396.88726189 -203.94736451 396.88726189 -217.74462891 351.39892578 C-223.64020171 346.06782272 -230.93824915 344.53683251 -238.52587891 343.44580078 C-239.29158203 343.32462891 -240.05728516 343.20345703 -240.84619141 343.07861328 C-253.38474293 341.18133246 -265.93861569 340.90879057 -278.59228516 340.90283203 C-280.22973152 340.89960607 -281.86717761 340.89624108 -283.50462341 340.89274597 C-286.92097642 340.88679875 -290.3373043 340.8849014 -293.75366211 340.88549805 C-297.21432745 340.88557914 -300.67485994 340.87865765 -304.13549805 340.86499023 C-330.85574399 340.48793549 -330.85574399 340.48793549 -357.40087891 343.07080078 C-358.1159964 343.13659332 -358.83111389 343.20238586 -359.56790161 343.27017212 C-362.03921975 343.53548362 -362.03921975 343.53548362 -365.40087891 345.07080078 C-367.14898871 347.90770268 -367.77122535 350.82279839 -368.40087891 354.07080078 C-368.55709717 354.8283667 -368.71331543 355.58593262 -368.87426758 356.36645508 C-369.31062259 358.71038401 -369.66535467 361.05327206 -369.99462891 363.41455078 C-370.11922485 364.28011597 -370.2438208 365.14568115 -370.37219238 366.03747559 C-371.63753998 375.18853911 -372.31844942 384.35531245 -372.90087891 393.57080078 C-373.02338095 395.39977616 -373.14644445 397.228714 -373.27001953 399.05761719 C-373.9716352 409.59706071 -374.5791127 420.14077789 -375.15087891 430.68798828 C-375.24532288 432.40704376 -375.24532288 432.40704376 -375.3416748 434.16082764 C-375.64821051 439.74550647 -375.94560396 445.33030718 -376.22314453 450.91650391 C-378.72781481 498.99508081 -378.72781481 498.99508081 -393.73681641 514.48095703 C-422.50795238 539.66650098 -472.6377015 546.08738664 -509.63134766 546.27392578 C-511.04375481 546.28431129 -511.04375481 546.28431129 -512.48469543 546.29490662 C-515.51929943 546.31211798 -518.55372835 546.31849782 -521.58837891 546.32080078 C-522.62712158 546.3221402 -523.66586426 546.32347961 -524.73608398 546.32485962 C-538.00841745 546.32115953 -551.18663578 546.04697439 -564.40087891 544.75830078 C-565.61799561 544.64067383 -566.8351123 544.52304687 -568.08911133 544.40185547 C-579.17470181 543.19220895 -590.45897877 541.48870637 -600.96337891 537.63330078 C-602.05779297 537.24271484 -603.15220703 536.85212891 -604.27978516 536.44970703 C-609.0546518 534.34016019 -613.21269478 531.71599075 -616.65087891 527.75830078 C-617.13041016 527.22591797 -617.60994141 526.69353516 -618.10400391 526.14501953 C-621.53179412 520.66262012 -621.88752424 514.11013517 -622.46337891 507.82080078 C-622.58036133 506.67611328 -622.58036133 506.67611328 -622.69970703 505.50830078 C-624.16864206 490.26051236 -624.57925184 474.90358545 -624.95288086 459.59667969 C-624.98425296 458.34684229 -624.98425296 458.34684229 -625.01625884 457.07175565 C-625.43769166 440.05632635 -625.56434454 423.04696199 -625.56789589 406.02693462 C-625.56922149 402.72577429 -625.57384929 399.42462064 -625.57821405 396.12346315 C-625.59222381 385.1845948 -625.59240068 374.24574547 -625.58910322 363.30687046 C-625.58837709 360.43862716 -625.58812725 357.57038419 -625.58801651 354.70214081 C-625.58399012 286.10573806 -625.2369931 217.5121196 -624.6775884 148.91807973 C-624.6068563 140.18262561 -624.54329223 131.44713738 -624.48251343 122.71160889 C-624.40777684 112.02253658 -624.32181607 101.3336228 -624.22151124 90.6447587 C-624.17007018 85.14763873 -624.12313912 79.65058115 -624.08840942 74.15332794 C-624.05617033 69.09414004 -624.01011801 64.03527256 -623.95299304 58.9763062 C-623.93460819 57.13830322 -623.92122169 55.30024228 -623.91324937 53.46216464 C-623.90163781 50.96478515 -623.87190884 48.46825529 -623.83757019 45.97109985 C-623.83852676 45.25148362 -623.83948333 44.53186739 -623.84046888 43.79044461 C-623.75141372 39.17387731 -622.83518 35.99193731 -620.40087891 32.07080078 C-617.80395508 30.03198242 -617.80395508 30.03198242 -614.69384766 28.23095703 C-614.13200272 27.90091171 -613.57015778 27.57086639 -612.99128723 27.2308197 C-611.19852634 26.18337033 -609.39381353 25.158714 -607.58837891 24.13330078 C-606.41897139 23.45040312 -605.25034427 22.76616725 -604.08251953 22.08056641 C-582.09468666 9.26767792 -582.09468666 9.26767792 -570.96337891 6.25830078 C-569.90207764 5.96004395 -569.90207764 5.96004395 -568.81933594 5.65576172 C-550.82446176 0.8126869 -531.8378059 0.91071443 -513.32666016 0.90283203 C-511.50945512 0.89960416 -509.69225032 0.89623906 -507.87504578 0.89274597 C-504.08050945 0.88679836 -500.28599573 0.88490127 -496.49145508 0.88549805 C-492.66263053 0.88557887 -488.83392673 0.87869911 -485.00512695 0.86499023 C-404.05483276 0.57954271 -404.05483276 0.57954271 -388.58837891 14.13330078 C-373.79372084 30.32039726 -375.23672836 61.51753968 -374.1399231 82.16384888 C-373.0203104 126.73206545 -373.0203104 126.73206545 -358.40087891 168.07080078 C-358.05659851 168.81602399 -357.71231812 169.5612472 -357.35760498 170.32905293 C-355.93704094 173.02109356 -354.62031066 174.97515493 -352.40087891 177.07080078 C-348.03064143 178.3963997 -343.78981709 178.23033767 -339.25244141 178.12426758 C-337.91107944 178.1250039 -336.56971476 178.12968194 -335.2283783 178.13798523 C-331.5873813 178.14910413 -327.94897662 178.1043914 -324.30846024 178.04920936 C-320.46688074 178.00008294 -316.62529152 178.00095079 -312.78344727 177.99580383 C-306.30668105 177.98014255 -299.83086934 177.93141646 -293.35449219 177.85961914 C-284.33060675 177.75966493 -275.30725262 177.7210052 -266.28289795 177.69416559 C-259.93925402 177.67282805 -253.59568291 177.63598154 -247.2521286 177.59660745 C-245.74045819 177.58730268 -244.22878514 177.57841638 -242.71710968 177.56997275 C-226.7573106 177.47901301 -210.84964405 177.18229282 -194.92041016 176.14038086 C-193.70140518 176.06073184 -192.48240021 175.98108282 -191.22645569 175.8990202 C-182.46084663 175.2690174 -173.95182615 174.1197498 -165.40087891 172.07080078 C-158.50680853 149.37253459 -153.97905667 126.58116034 -150.02587891 103.23077393 C-139.29622975 39.89196448 -139.29622975 39.89196448 -120.30712891 25.77001953 C-85.55799267 1.90934574 -40.70869405 1.2004801 0 0 Z " fill="#E81616" transform="translate(625.40087890625,112.92919921875)"/>
<path d="M0 0 C3.63657562 -0.00072849 7.27314782 -0.00289511 10.90972257 -0.00549722 C23.77466362 -0.01466181 36.63959456 -0.01884426 49.50453877 -0.01804566 C59.91764051 -0.0175157 70.33070446 -0.02452248 80.74379659 -0.03855348 C267.93511754 -0.28515934 267.93511754 -0.28515934 331.90029073 5.60475707 C333.11700459 5.71489135 334.33371846 5.82502563 335.58730245 5.9384973 C356.42110712 8.07312065 356.42110712 8.07312065 363.27529073 16.16725707 C374.02705714 30.03547752 374.50928321 48.04803978 374.52529073 64.85475707 C374.52629781 65.58624969 374.52730489 66.3177423 374.52834249 67.07140136 C374.50573918 91.39688316 372.09228531 115.50674784 354.54482198 133.95631957 C343.06780812 145.13702498 328.52279605 150.36088128 313.27529073 154.16725707 C312.14349385 154.45342895 311.01169698 154.73960082 309.84560323 155.03444457 C286.22167546 160.32664086 261.35046341 160.89805546 237.24123311 162.22749877 C234.17580968 162.39871248 231.11090474 162.57838188 228.04596925 162.75808787 C225.03374524 162.93389171 222.02128293 163.10529232 219.00872922 163.27534461 C217.60039988 163.35516652 216.19213061 163.43605745 214.78393292 163.51816916 C205.26439535 164.06913561 195.80685138 164.26158471 186.27529073 164.16725707 C186.03439717 165.27810668 185.79350362 166.38895629 185.54531026 167.53346801 C183.89337206 175.09196606 182.19475989 182.62686889 180.26747823 190.12038207 C163.13245775 256.7735992 154.22209865 325.8458847 144.25835443 393.88021922 C141.68977321 411.41500368 139.06048757 428.93210475 136.07607198 446.40163207 C135.95572276 447.11062148 135.83537354 447.81961089 135.71137738 448.55008483 C126.23900933 504.13198061 126.23900933 504.13198061 104.29482198 521.07350707 C61.81497871 550.52912931 -1.74573142 549.12492833 -50.97177958 540.40529418 C-59.42326975 538.75056233 -66.07206778 536.93263057 -71.56845927 530.04616332 C-84.16710737 509.57336016 -79.74180479 471.7288442 -80.25205302 448.11256957 C-80.27302609 447.16645434 -80.29399917 446.22033912 -80.31560779 445.24555373 C-80.81227938 422.45881156 -80.94745636 399.67006873 -81.08914065 376.87890601 C-75.61556957 274.0272924 -75.61556957 274.0272924 -95.72470927 175.16725707 C-96.02248271 174.49565551 -96.32025615 173.82405395 -96.62705302 173.13210082 C-99.38794807 168.61931253 -104.57995066 167.61631683 -109.38950419 166.42921996 C-134.4898879 160.88881671 -161.16063971 161.95203207 -186.68515849 161.69045043 C-240.99813155 161.11028755 -240.99813155 161.11028755 -259.29892802 143.86256957 C-272.91784094 128.7304441 -274.93923448 109.69213534 -273.9478538 90.12868285 C-271.97055295 63.88726119 -260.87404878 36.11681219 -240.74033427 18.56569457 C-231.28359211 11.19711629 -223.12207907 7.70637065 -211.22470927 6.54225707 C-210.08421123 6.42309936 -208.94371318 6.30394164 -207.76865458 6.18117309 C-183.20573906 3.72918617 -158.572365 2.91745707 -133.91220927 2.10475707 C-132.70745952 2.0644638 -131.50270976 2.02417052 -130.26145244 1.98265624 C-86.85050322 0.5529477 -43.4327373 0.00493577 0 0 Z " fill="#E81616" transform="translate(2025.7247092723846,116.83274292945862)"/>
</svg>
